<svg xmlns="http://www.w3.org/2000/svg" xmlns:xlink="http://www.w3.org/1999/xlink" viewBox="0 0 135.000000 76.000000" width="67.500000mm" height="38.000000mm" version="1.1" style="width: 685.658px;">
<rect x="1.000000" y="1.000000" width="134.000000" height="75.000000" rx="0" ry="0" style="stroke:none;fill:#cccccc;"></rect>
<rect x="0.000000" y="0.000000" width="134.000000" height="75.000000" rx="0" ry="0" style="stroke:none;fill:#ffffff;"></rect>
<text x="10.000000" y="7.000000" font-family="Arial" font-size="7"></text>
<line x1="52.000000" y1="25.000000" x2="52.000000" y2="43.000000" style="stroke: black; stroke-linecap:round; stroke-width:0.25; stroke-dasharray:3,3;"></line>
<line x1="52.000000" y1="43.000000" x2="62.000000" y2="43.000000" style="stroke: black; stroke-linecap:round; stroke-width:0.25; stroke-dasharray:3,3;"></line>
<line x1="62.000000" y1="43.000000" x2="62.000000" y2="25.000000" style="stroke: black; stroke-linecap:round; stroke-width:0.25; stroke-dasharray:3,3;"></line>
<line x1="52.000000" y1="25.000000" x2="57.000000" y2="25.000000" style="stroke: black; stroke-linecap:round; stroke-width:0.25; stroke-dasharray:3,3;"></line>
<line x1="62.000000" y1="25.000000" x2="62.000000" y2="25.000000" style="stroke: black; stroke-linecap:round; stroke-width:0.25; stroke-dasharray:3,3;"></line>
<text x="57.000000" y="27.000000" font-family="Arial" font-size="7">tgroup(my custom tap)</text>
<line x1="15.000000" y1="15.000000" x2="15.000000" y2="61.000000" style="stroke: black; stroke-linecap:round; stroke-width:0.25; stroke-dasharray:3,3;"></line>
<line x1="15.000000" y1="61.000000" x2="120.000000" y2="61.000000" style="stroke: black; stroke-linecap:round; stroke-width:0.25; stroke-dasharray:3,3;"></line>
<line x1="120.000000" y1="61.000000" x2="120.000000" y2="15.000000" style="stroke: black; stroke-linecap:round; stroke-width:0.25; stroke-dasharray:3,3;"></line>
<line x1="15.000000" y1="15.000000" x2="20.000000" y2="15.000000" style="stroke: black; stroke-linecap:round; stroke-width:0.25; stroke-dasharray:3,3;"></line>
<line x1="49.025000" y1="15.000000" x2="120.000000" y2="15.000000" style="stroke: black; stroke-linecap:round; stroke-width:0.25; stroke-dasharray:3,3;"></line>
<text x="20.000000" y="17.000000" font-family="Arial" font-size="7">process</text>
<line x1="122.000000" y1="33.000000" x2="125.000000" y2="34.000000" transform="rotate(0.000000,125.000000,34.000000)" style="stroke: black; stroke-width:0.25;"></line>
<line x1="122.000000" y1="35.000000" x2="125.000000" y2="34.000000" transform="rotate(0.000000,125.000000,34.000000)" style="stroke: black; stroke-width:0.25;"></line>
<line x1="122.000000" y1="41.000000" x2="125.000000" y2="42.000000" transform="rotate(0.000000,125.000000,42.000000)" style="stroke: black; stroke-width:0.25;"></line>
<line x1="122.000000" y1="43.000000" x2="125.000000" y2="42.000000" transform="rotate(0.000000,125.000000,42.000000)" style="stroke: black; stroke-width:0.25;"></line>
<line x1="10.000000" y1="38.000000" x2="20.000000" y2="38.000000" style="stroke:black; stroke-linecap:round; stroke-width:0.25;"></line>
<line x1="20.000000" y1="38.000000" x2="24.000000" y2="38.000000" style="stroke:black; stroke-linecap:round; stroke-width:0.25;"></line>
<line x1="24.000000" y1="38.000000" x2="28.000000" y2="38.000000" style="stroke:black; stroke-linecap:round; stroke-width:0.25;"></line>
<line x1="28.000000" y1="38.000000" x2="28.000000" y2="38.000000" style="stroke:black; stroke-linecap:round; stroke-width:0.25;"></line>
<line x1="28.000000" y1="38.000000" x2="32.000000" y2="38.000000" style="stroke:black; stroke-linecap:round; stroke-width:0.25;"></line>
<line x1="32.000000" y1="38.000000" x2="36.000000" y2="38.000000" style="stroke:black; stroke-linecap:round; stroke-width:0.25;"></line>
<line x1="36.000000" y1="38.000000" x2="47.000000" y2="34.000000" style="stroke:black; stroke-linecap:round; stroke-width:0.25;"></line>
<line x1="36.000000" y1="38.000000" x2="47.000000" y2="52.000000" style="stroke:black; stroke-linecap:round; stroke-width:0.25;"></line>
<line x1="47.000000" y1="34.000000" x2="47.000000" y2="34.000000" style="stroke:black; stroke-linecap:round; stroke-width:0.25;"></line>
<line x1="47.000000" y1="34.000000" x2="57.000000" y2="34.000000" style="stroke:black; stroke-linecap:round; stroke-width:0.25;"></line>
<line x1="47.000000" y1="52.000000" x2="57.000000" y2="52.000000" style="stroke:black; stroke-linecap:round; stroke-width:0.25;"></line>
<line x1="57.000000" y1="34.000000" x2="67.000000" y2="34.000000" style="stroke:black; stroke-linecap:round; stroke-width:0.25;"></line>
<line x1="57.000000" y1="52.000000" x2="67.000000" y2="52.000000" style="stroke:black; stroke-linecap:round; stroke-width:0.25;"></line>
<line x1="67.000000" y1="34.000000" x2="75.000000" y2="34.000000" style="stroke:black; stroke-linecap:round; stroke-width:0.25;"></line>
<line x1="67.000000" y1="42.000000" x2="75.000000" y2="42.000000" style="stroke:black; stroke-linecap:round; stroke-width:0.25;"></line>
<line x1="67.000000" y1="52.000000" x2="67.000000" y2="42.000000" style="stroke:black; stroke-linecap:round; stroke-width:0.25;"></line>
<line x1="67.000000" y1="52.000000" x2="67.000000" y2="52.000000" style="stroke:black; stroke-linecap:round; stroke-width:0.25;"></line>
<line x1="75.000000" y1="34.000000" x2="79.000000" y2="34.000000" style="stroke:black; stroke-linecap:round; stroke-width:0.25;"></line>
<line x1="75.000000" y1="42.000000" x2="79.000000" y2="42.000000" style="stroke:black; stroke-linecap:round; stroke-width:0.25;"></line>
<line x1="79.000000" y1="34.000000" x2="103.000000" y2="42.000000" style="stroke:black; stroke-linecap:round; stroke-width:0.25;"></line>
<line x1="79.000000" y1="42.000000" x2="103.000000" y2="34.000000" style="stroke:black; stroke-linecap:round; stroke-width:0.25;"></line>
<line x1="103.000000" y1="34.000000" x2="107.000000" y2="34.000000" style="stroke:black; stroke-linecap:round; stroke-width:0.25;"></line>
<line x1="103.000000" y1="42.000000" x2="107.000000" y2="42.000000" style="stroke:black; stroke-linecap:round; stroke-width:0.25;"></line>
<line x1="107.000000" y1="34.000000" x2="107.000000" y2="34.000000" style="stroke:black; stroke-linecap:round; stroke-width:0.25;"></line>
<line x1="107.000000" y1="34.000000" x2="111.000000" y2="34.000000" style="stroke:black; stroke-linecap:round; stroke-width:0.25;"></line>
<line x1="107.000000" y1="42.000000" x2="107.000000" y2="42.000000" style="stroke:black; stroke-linecap:round; stroke-width:0.25;"></line>
<line x1="107.000000" y1="42.000000" x2="111.000000" y2="42.000000" style="stroke:black; stroke-linecap:round; stroke-width:0.25;"></line>
<line x1="111.000000" y1="34.000000" x2="115.000000" y2="34.000000" style="stroke:black; stroke-linecap:round; stroke-width:0.25;"></line>
<line x1="111.000000" y1="42.000000" x2="115.000000" y2="42.000000" style="stroke:black; stroke-linecap:round; stroke-width:0.25;"></line>
<line x1="115.000000" y1="34.000000" x2="125.000000" y2="34.000000" style="stroke:black; stroke-linecap:round; stroke-width:0.25;"></line>
<line x1="115.000000" y1="42.000000" x2="125.000000" y2="42.000000" style="stroke:black; stroke-linecap:round; stroke-width:0.25;"></line>
</svg>
